<svg width="200" height="200" viewBox="0 0 200 200" fill="none" xmlns="http://www.w3.org/2000/svg">
  <defs>
    <linearGradient id="tapin-gradient" x1="32" y1="20" x2="168" y2="180" gradientUnits="userSpaceOnUse">
      <stop stop-color="#0EA5E9" />
      <stop offset="0.5" stop-color="#22D3EE" />
      <stop offset="1" stop-color="#7C3AED" />
    </linearGradient>
    <linearGradient id="tapin-accent" x1="70" y1="52" x2="134" y2="112" gradientUnits="userSpaceOnUse">
      <stop stop-color="#E0F2FE" />
      <stop offset="1" stop-color="#C7D2FE" />
    </linearGradient>
  </defs>
  <path d="M100 12c-32.5 0-58.8 26.3-58.8 58.8 0 40.8 36.1 84.3 58.8 118.4 22.7-34.1 58.8-77.6 58.8-118.4C158.8 38.3 132.5 12 100 12Z" fill="url(#tapin-gradient)" />
  <circle cx="100" cy="76" r="34" fill="url(#tapin-accent)" />
  <path d="M86 74c0-9.9 8-18 18-18h14c4.4 0 8 3.6 8 8s-3.6 8-8 8h-6v22c0 4.4-3.6 8-8 8s-8-3.6-8-8V82h-2c-4.4 0-8-3.6-8-8Z" fill="#0F172A" opacity="0.9" />
  <circle cx="142" cy="128" r="10" fill="#22D3EE" />
  <path d="M132 122c-8-2-16 4.3-16 12.7 0 3.9 1.8 7.4 4.7 9.7 7.1-9.9 15.7-17.8 26.3-24.6-4.2-1.2-8.9-0.9-14 2.2Z" fill="#0EA5E9" opacity="0.65" />
</svg>
